<?xml version="1.0" encoding="utf-8"?>
<!-- Generator: Adobe Illustrator 24.3.0, SVG Export Plug-In . SVG Version: 6.00 Build 0)  -->
<svg id="cooking" version="1.1" xmlns="http://www.w3.org/2000/svg" xmlns:xlink="http://www.w3.org/1999/xlink" x="0px" y="0px"
	 viewBox="0 0 312 327.6" style="enable-background:new 0 0 312 327.6;" xml:space="preserve">
<style type="text/css">
	.st0{fill:#F9F9FA;}

	#music { cursor: pointer; }
	#music:hover { fill: orange !important; }

	#black { cursor: pointer; }
	#black:hover { fill: grey !important; }


	#up-dark { cursor: pointer; }
	#up-dark:hover { fill: grey !important; }

</style>
<g id="black_1_">
	<path id="black" d="M39.6,84.7l21.2,10.9L33.9,157c-0.5,1.1-1.7,1.8-2.9,1.7c-1.6-0.1-4.4,0.8-8.4,5.6c-7.2,8.5-2,19.8-2,19.8
		L0,227.8l10.9,4.8l13.7-30.7c0,0,8.9,30.7,39.6,32.1s44.7-4.1,44.7-4.1l-20.2,97.7h154.1l-18.8-97.4c0,0,1.7,3.1,26.6,5.1
		c24.9,2,43.7-9.2,48.8-16.7c5.1-7.5,13.3-32.5,12.3-48.2s-15.4-12.3-15.4-12.3s-4.1-8.2-12.6-27c-8.5-18.8-4.4-28.4-6.5-45.1
		c-2-16.7-18.8-31.4-34.2-25.3s-14,19.1-13,29.7c1,10.6,30.1,34.8,34.2,39.6c4.1,4.8,23.2,29.4,21.2,34.5s-2.7,14-2.7,18.4
		s-7.5,27-29.7,22c-22.2-5-66.2-8.3-83-11.4c-16.8-3.1-74.1,9.9-90.9,11.3s-30.7-6.8-29-21.9S43,161.9,43,161.9l28-62.5l19.8,9.6
		l24.6-58.8L66.3,27L39.6,84.7z M216.1,137.4c0,26.5-21.5,48-48,48s-48-21.5-48-48s21.5-48,48-48S216.1,110.9,216.1,137.4z"/>
</g>
<g id="music">
	<path id="music_2_" d="M152.1,56c0,0-8.4-6.8-17,2s0.4,17.3,8.5,16.2c8.1-1.1,12.7-6.7,12.3-14.6l0-26.3c0,0,8.4-2.2,10.2,8.4
		c1.8,10.6,0,16.2,0,16.2s4-11.2,3.6-16.2s-6.4-14-11.4-18.2s-2.6-6.8-1-7.2c1.6-0.4,7.4,2,8,6.2c0.6,4.2,1,14.2,1,14.2s2-1.8,2.4-6
		s2.8-8-3.2-15.6s-9.4-9.4-9.6-12.2c-0.2-2.8-3.6-4.8-3.6,0S152.1,56,152.1,56z M199.8,53.4c0,0-13.1-3.7-17.2,10.1
		c-1.5,12.5,12.3,11.8,17.3,7.9s6-8.2,5.6-10.7C205.2,58.1,192,3.1,192,3.1s-1.4-3.4-3-2.6c-1.5,0.8,0.6,7.7,0.6,7.7L199.8,53.4z"/>
</g>
<g id="white_2_">
	<path id="white_1_" class="st0" d="M242.7,76.7c1.3,4.4,9,19.7,10.5,23.3c1.5,3.6,26.4,37.4,26.4,37.4s-5.1-14.3-6.7-18.4
		c-1.5-4.1-6.4-18.4-8.5-25.9c-2-7.4-11.3-21-11.3-21C238.1,53.4,241.4,72.3,242.7,76.7z M110,195.7l18.4,63.8l-21.9,68
		c49.4,0.3,71.6,0,114.8,0l-15.7-64.1l16.4-67.6H110z M236.8,69.3c0,0-8.2,11.5,0,25.6c8.2,14.1,16.4,15.9,19.2,19.2
		c2.8,3.3,13.3,16.9,13.3,16.9S236.8,81.3,236.8,69.3z M279.2,126.7c0,0-4.1-16.7-4.9-21s2.9-11.8-3.1-27c-5.9-15.2-20-16-20-16
		C260.6,70.3,279.2,126.7,279.2,126.7z M75.9,43.5l-6.3-2.8L52.6,78l6.3,2.8L75.9,43.5z M89.5,49.7l-6.3-2.8L66.3,84.2l6.3,2.8
		L89.5,49.7z M103.1,55.9l-6.3-2.8L79.9,90.3l6.3,2.8L103.1,55.9z"/>
</g>
<g id="up-dark_1_">
	<path id="up-dark" d="M144.8,261h45.1l15.7-63.9c-45.1-15-79.9,0-79.9,0L144.8,261z"/>
</g>
<defs>
	<script>
		let badge = document.querySelector("#cooking");

		function logMyId() {
			console.log(this.id)
		}

		badge.addEventListener("click", logMyId)

	</script>
</defs>
</svg>
