<?xml version="1.0" encoding="utf-8"?>
<!-- Generator: Adobe Illustrator 24.3.0, SVG Export Plug-In . SVG Version: 6.00 Build 0)  -->
<svg version="1.1" xmlns="http://www.w3.org/2000/svg" xmlns:xlink="http://www.w3.org/1999/xlink" x="0px" y="0px"
	 viewBox="0 0 355.1 271.2" style="enable-background:new 0 0 355.1 271.2;" xml:space="preserve">
<style type="text/css">
	.st0{fill:#FDFEFE;}
</style>
<g id="black_2_">
	<g id="driving">
		<g id="black">
			<path id="black_1_" d="M131.3,199.3c-0.4,7.2-7.6,7.9-7.6,7.9L98.6,207c-7.2,1.1-8.7-11.4-8.7-11.4l0.4-12.2L31,271.2h133.7
				l2.4-45.3h21l4.2,43.6h130.5l-58.4-87.2c0,0,2.2,11,0,18.1c-2.4,7.7-7.9,6.4-7.9,6.4s-11.9,1.2-25.4,0c-10.8-1-5.5-22.5-7.4-21.9
				h-92.2C131.6,184.8,131.8,192.1,131.3,199.3z M0,271.2h16l70.4-95.3l-1.1-7L0,271.2z M339.6,271.2h15.5L271.6,168l-4.2,7
				L339.6,271.2z"/>
		</g>
	</g>
</g>
<g id="music_3_">
	<g id="music_2_">
		<g id="music">
			<path id="music_1_" d="M86.3,158c-6.8-25,5.7-30.4,7.7-32.6s2.4-4.8,0.9-4.4s-4.8,3.3-9-5s12.2-5.5,13.8-5.5
				c1.5,0,7.9,4.2,7.9,4.2s13.8-27.5,21.6-35.4s29.1-10.5,29.1-10.5c0.7-0.3,22.5-0.8,33.2,0c10.5,0.8,27.1,3.5,34.1,9.6
				c7,6.1,23.4,36.1,23.4,36.1s0.7-3.5,13.3-3.9c12.6-0.4,8,9.8,2.6,9.6c-5.1-0.2-5.2,4.4-5.2,4.4s10.9,3.5,10.5,26.7
				s-14.9,27.5-14.9,27.5H99.7C99.7,178.7,94,178.7,86.3,158z M127,196.5v-10.4c0-2.1-1.7-3.8-3.8-3.8h-22.3c-2.1,0-3.8,1.7-3.8,3.8
				v10.4c0,2.1,1.7,3.8,3.8,3.8h22.3C125.3,200.3,127,198.6,127,196.5z M259,196.5v-10.4c0-2.1-1.7-3.8-3.8-3.8h-22.3
				c-2.1,0-3.8,1.7-3.8,3.8v10.4c0,2.1,1.7,3.8,3.8,3.8h22.3C257.3,200.3,259,198.6,259,196.5z M137.9,34.6c0,0-5.4-3.7-11,0.5
				c-5.6,4.3-0.8,10.8,5.4,10.5s8.4-2.8,8.8-6.1l-1.2-26.1c0,0,2.9,1.5,5.1,6.2c2.3,4.7,5.5,8,9.5,8.2s4.1-0.5,4.1-0.5
				s-4.5-2.9-7.7-9.9s-4.1-10.8-8-14.3s-5.4-3.4-6-2.6S137.9,34.6,137.9,34.6z M161.4,48.3c0,0-2.8-3.9-9-2.6
				c-6.2,1.3-7.8,9.8,1.2,11.8s9.5-5.4,9.5-5.4l4.4-24.7l20.4-1.7l-3.7,21.1c0,0-5.6-5.3-12.3-0.4c-3.4,4.3-0.2,9.5,5.9,10.2
				c6.1,0.8,8.3-4.5,8.3-4.5l4.8-27.3c0,0,1-2-2.1-1.9c-3.1,0.2-21.3,1.9-21.3,1.9s-1.5-0.3-1.9,1.6
				C165.2,28.2,161.4,48.3,161.4,48.3z M205.7,39.8c0,0-5.3-4.3-10.8,1.3s0.3,11,5.4,10.2c5.1-0.7,8.1-4.3,7.8-9.2V25.5
				c0,0,5.3-1.4,6.5,5.3c1.1,6.7,0,10.3,0,10.3s2.5-7.1,2.3-10.3c-0.3-3.2-4.1-8.9-7.2-11.6c-3.2-2.7-1.7-4.3-0.6-4.6
				c1-0.3,4.7,1.3,5.1,3.9c0.4,2.7,0.6,9,0.6,9s1.3-1.1,1.5-3.8c0.3-2.7,1.8-5.1-2-9.9s-6-6-6.1-7.7c-0.1-1.8-2.3-3-2.3,0
				S205.7,39.8,205.7,39.8z M227.7,48.5c0,0-7.1-4.9-12.4,2.5c-3.5,7.2,4.9,9.6,8.7,8.3s5.3-3.7,5.6-5.3s3.8-37.2,3.8-37.2
				s-0.1-2.4-1.2-2.2c-1.1,0.2-1.3,4.7-1.3,4.7L227.7,48.5z"/>
		</g>
	</g>
</g>
<g id="white_3_">
	<g id="white_1_">
		<g id="white">
			<path id="white_2_" class="st0" d="M106.6,144.9c-2.2,2.6-2.2,12.1,0,14.6c5.2,6,23.6,9.2,29.3,3.9
				c11.6-13.1-20.5-21.2-20.5-21.2C111.9,141.2,108.8,142.2,106.6,144.9z M240.8,142.2c0,0-32.1,8.1-20.5,21.2
				c5.7,5.2,24,2,29.3-3.9c2.2-2.5,2.2-12,0-14.6C247.4,142.2,244.3,141.2,240.8,142.2z M115.8,113.5h124.7c0,0-11.1-32.6-31.1-36.9
				s-54.9-2.8-62.8,0c-7.9,2.8-14.3,5.6-20.3,15.7S115.8,113.5,115.8,113.5z"/>
		</g>
	</g>
</g>
</svg>
