<?xml version="1.0" encoding="utf-8"?>
<!-- Generator: Adobe Illustrator 24.3.0, SVG Export Plug-In . SVG Version: 6.00 Build 0)  -->
<svg version="1.1" xmlns="http://www.w3.org/2000/svg" xmlns:xlink="http://www.w3.org/1999/xlink" x="0px" y="0px"
	 viewBox="0 0 308.4 292.2" style="enable-background:new 0 0 308.4 292.2;" xml:space="preserve">
<style type="text/css">
	.st0{fill:#F9F9FA;}
</style>
<g id="black">
	<path id="black_9_" d="M98.3,35.2c0,17.9-14.5,32.4-32.4,32.4S33.5,53.1,33.5,35.2S48,2.8,65.9,2.8S98.3,17.3,98.3,35.2z
		 M59.3,74.1c-24,0-25,22.5-25,22.5s-1.9,47.9,0,77.9s23.5,27.6,23.5,27.6h67.8l0.4,79.2h19c8.8-1.3,12-11.6,12-11.6
		s2.1-72.1,0-86.2c-2.1-14.1-17.1-12.6-17.1-12.6h-39.6v-48.1c0,0,0.2,1.3,22.9,8.6c22.7,7.3,28-4.5,28-4.5l21-28.9
		c4.5-9.8,1.9-14.6-4.3-19.3c-6.2-4.7-14-0.4-14-0.4l-12.1-7.3c0,0,2.1,1.1-0.8-3.2s-8.4-7.1-13.9-7.1c-5.4,0-6.9,6-2.1,10.3
		c4.9,4.3,13.7,4.5,13.7,4.5l10.9,7.5l-22.1,24L94,90.3C87.8,74.5,83.3,74.1,59.3,74.1z M9.2,233.7C8.8,255.1,0,291.1,0,291.1h17.8
		l5.1-27.8h66.3l0.2,27.8h18.6v-61h4.5l0-9.2c0.6-9-8.5-8.1-8.5-8.1H26.8c0.4-22.5-8.1-86.3-8.1-86.3C7.9,121.4,0,127.5,0,127.5
		C8.8,138.3,9.6,212.3,9.2,233.7z M149.2,162.9h68.1v129.2h25.7V163.9h65.3V141h-81.8l11.5-19h-71.1l15.8,19h-33.4V162.9z"/>
</g>
<g id="music">
	<path id="music_3_" d="M171.1,39.6c0,0-4.4-6.1-14-4.1c-9.6,2-12.1,15.3,1.9,18.4c14,3.1,14.8-8.4,14.8-8.4L180.7,7l31.7-2.7
		l-5.8,32.8c0,0-8.8-8.3-19.2-0.6c-5.3,6.7-0.2,14.7,9.2,15.9c9.4,1.2,12.9-7,12.9-7L217,2.9c0,0,1.6-3.2-3.3-2.9
		s-33.1,2.9-33.1,2.9s-2.4-0.4-2.9,2.5S171.1,39.6,171.1,39.6z M227.3,64.5c0,0-3.9-5.5-12.7-3.7c-8.7,1.8-10.9,13.8,1.8,16.6
		c12.7,2.8,13.4-7.6,13.4-7.6l6.2-34.8l28.7-2.4l-5.3,29.7c0,0-8-7.5-17.4-0.5c-4.8,6.1-0.2,13.3,8.3,14.4
		c8.5,1.1,11.6-6.3,11.6-6.3l6.8-38.5c0,0,1.4-2.9-3-2.7c-4.4,0.2-30,2.6-30,2.6s-2.2-0.4-2.6,2.2C232.8,36.2,227.3,64.5,227.3,64.5
		z M233.3,42.7l32.8-2.8l0.6-3.7l-33.4,3.3V42.7z"/>
</g>
<g id="white">
	<polygon id="white_5_" class="st0" points="24.2,256 89,256 89,229.8 26.3,229.8 	"/>
</g>
</svg>
