<?xml version="1.0" encoding="utf-8"?>
<!-- Generator: Adobe Illustrator 24.3.0, SVG Export Plug-In . SVG Version: 6.00 Build 0)  -->
<svg version="1.1" xmlns="http://www.w3.org/2000/svg" xmlns:xlink="http://www.w3.org/1999/xlink" x="0px" y="0px"
	 viewBox="0 0 343.2 249.3" style="enable-background:new 0 0 343.2 249.3;" xml:space="preserve">
<g id="black">
	<path id="black_7_" d="M92.8,130.2c0,14.6-11.8,26.5-26.5,26.5s-26.5-11.8-26.5-26.5c0-14.6,11.8-26.5,26.5-26.5
		S92.8,115.6,92.8,130.2z M20.1,245.5V79.1c0-2.1-1.7-3.8-3.8-3.8H3.8c-2.1,0-3.8,1.7-3.8,3.8l0,166.4c0,2.1,1.7,3.8,3.8,3.8h12.6
		C18.4,249.3,20.1,247.6,20.1,245.5z M175.5,201.7v-21.2c0-4.5-3.7-8.3-8.3-8.3h-149c-4.5,0-8.3,3.7-8.3,8.3v21.2
		c0,4.5,3.7,8.3,8.3,8.3h149C171.8,209.9,175.5,206.2,175.5,201.7z M343.2,197.5v-30.9c0-22.2-18.2-40.4-40.4-40.4H163.4
		c-2.7,0-5,2.2-5,5v72.7c0,3.3,2.7,6,6,6h166.3C337.6,209.9,343.2,204.3,343.2,197.5z M343.2,243.6v-57.2c0-3.1-2.6-5.7-5.7-5.7
		h-10.4c-3.1,0-5.7,2.6-5.7,5.7v57.2c0,3.1,2.6,5.7,5.7,5.7h10.4C340.6,249.3,343.2,246.7,343.2,243.6z M127.1,126.2
		C96.7,133.7,95,160.4,95,160.4h76.6v-34.2H127.1z M235.9,11.5c-9.8,11.5-19.4,41.7,12.3,57.3c43.2,14.7,48.6-26.9,48.6-26.9
		C238.2,50.7,258.1,0,258.1,0S245.7,0,235.9,11.5z"/>
</g>
<g id="music">
	<path id="music_8_" d="M123.7,87.3c0,0-5.4-3.7-11.1,0.5c-5.6,4.3-0.8,10.9,5.4,10.6c6.2-0.3,8.4-2.8,8.8-6.1l-1.2-26.2
		c0,0,2.9,1.5,5.2,6.2s5.5,8,9.6,8.2c4.1,0.2,4.1-0.5,4.1-0.5s-4.5-2.9-7.7-9.9s-4.1-10.8-8-14.3s-5.4-3.4-6-2.6
		C122,53.9,123.7,87.3,123.7,87.3z M148.2,98.8c0,0-2.8-3.9-9-2.6c-6.2,1.3-7.8,9.9,1.2,11.8c9,2,9.5-5.4,9.5-5.4l4.4-24.8l20.4-1.7
		l-3.7,21.1c0,0-5.7-5.4-12.3-0.4c-3.4,4.3-0.2,9.5,5.9,10.2c6.1,0.8,8.3-4.5,8.3-4.5l4.8-27.4c0,0,1-2.1-2.1-1.9
		c-3.1,0.2-21.3,1.9-21.3,1.9s-1.5-0.3-1.9,1.6C152.1,78.6,148.2,98.8,148.2,98.8z M198.4,96.7c0,0-5.3-4.3-10.8,1.3
		s0.3,11,5.4,10.3c5.2-0.7,8.1-4.3,7.8-9.2l0-16.7c0,0,5.3-1.4,6.5,5.3c1.1,6.7,0,10.3,0,10.3s2.5-7.1,2.3-10.3
		c-0.3-3.2-4.1-8.9-7.2-11.6c-3.2-2.7-1.7-4.3-0.6-4.6s4.7,1.3,5.1,3.9c0.4,2.7,0.6,9,0.6,9s1.3-1.1,1.5-3.8c0.3-2.7,1.8-5.1-2-9.9
		c-3.8-4.8-6-6-6.1-7.8c-0.1-1.8-2.3-3.1-2.3,0C198.6,66.1,198.4,96.7,198.4,96.7z M227.2,101.9c0,0-7.1-4.9-12.4,2.5
		c-3.5,7.2,4.9,9.6,8.8,8.3c3.9-1.3,5.3-3.7,5.6-5.3s3.8-37.3,3.8-37.3s-0.1-2.4-1.2-2.2c-1.1,0.2-1.3,4.7-1.3,4.7L227.2,101.9z"/>
</g>
</svg>
