<?xml version="1.0" encoding="utf-8"?>
<!-- Generator: Adobe Illustrator 24.3.0, SVG Export Plug-In . SVG Version: 6.00 Build 0)  -->
<svg id="phone" version="1.1" xmlns="http://www.w3.org/2000/svg" xmlns:xlink="http://www.w3.org/1999/xlink" x="0px" y="0px"
	 viewBox="0 0 344.8 202.8" style="enable-background:new 0 0 344.8 202.8;" xml:space="preserve">

<style type="text/css">
	#music { cursor: pointer; }
	#music:hover { fill: orange !important; }

	#black { cursor: pointer; }
	#black:hover { fill: grey !important; }
</style>
<g id="black">
	<path id="black_3_" d="M107.5,131.3c0,16.3-13.2,29.5-29.5,29.5s-29.5-13.2-29.5-29.5s13.2-29.5,29.5-29.5S107.5,115,107.5,131.3z
		 M91.1,100c10,2.4,14.9,11.7,16.5,14.5s6.4,15.5,3.1,28.4c-3.2,13-16.9,19.6-16.9,19.6s0.6,13.9,16,26.1
		c21.4,12.4,54.4,14.6,78.1,13.1c23.7-1.5,25.5-10.5,25.5-10.5l44.3-49.6c0,0,64.2-10.1,73.6-12c9.4-1.9,11.6-4.5,13.5-14.6
		c1.1-21-18-18.8-18-18.8s-73.2,12.4-79.2,12.8s-15.8,10.9-15.8,10.9l-28.9,31.9c-24.4,3-43.9-2.3-43.9-2.3s-11.6,22.1-22.6,26.3
		c-10.9,4.1-16.9-3.4-20.2-10.9c-3.4-7.5,15.4-30,19.5-43.9c4.1-13.9-10.9-15.4-10.9-15.4S84.5,92.9,80.8,92.1
		c-3.8-0.8-9.4,5.6-9.4,5.6S83.8,98.3,91.1,100z M185.1,148.7h16l28-32.1l-12.5-6.3c0,0-17.2-7.9-24.1,11.1S185.1,148.7,185.1,148.7
		z M144.8,126.9l-23.9,30.5c0,0-5.2,6.2,2.1,13.2c7.3,7,14.4-0.7,14.4-0.7l27-33.6c2.7-7.2,1.5-11.8,1.5-11.8l-8.4-49.3
		c0,0-3.2-9.3-11.8-8.2c-8.6,1.1-9.6,9.4-9.6,9.4L144.8,126.9z M31,199.4c0,0,30.7,0.7,51.9-9c0,0,4.6,3.8,9.3,0
		c4.6-3.8,3.5-9.9,0.7-12c-2.8-2.1-2-11.7-2-11.7h-3.4l-0.4,12.5c0,0,6.4,2.2,3.1,7.5c-3.2,4.1-7.7-1.1-7.7-1.1s-12.2,7.5-28.2,8.6
		s-25.5,0.6-25.5,0.6s-3,6.5-7.7,2.4s1.1-7.3,1.1-7.3S10.4,155.6,9,134.6s-1.4-31.8-1.4-31.8s-6.5-3.4-2.5-7.6s7.5,1,7.5,1
		S26.6,89,44,87.1s22.8,0,22.8,0s0.3-4.2,5.2-3.7c3.4,0.4,3.9,3.4,3.9,3.4l3.2,0.4c0,0,0.6-7.3-6.8-7.6c-7.3-0.3-6.9,3.4-6.9,3.4
		s-10.1-2.3-29.8,1c0,0-18.6,4.5-22.2,6.8c0,0-7-3.5-10.7,0.6s-3.8,5.5,0,12.1c0,0,1.7,24.1,2.4,30s5.5,45.6,12,54.1
		c0,0-4.4,7.6,0.4,12.7C22.4,205.2,26,201.9,31,199.4z M243.3,162l22.1,11.6c0,0,17.9,8.7,20.6,8.2c2.7-0.6,11.7-1,15.8-13.4
		s-7.5-18.4-7.5-18.4l-15.1-7.7l-21.4,3.5L243.3,162z"/>
</g>
<g id="music">
	<path id="music_5_" d="M134.6,68.5l3.7-3.9l-24.5-22.2l-4.2,3.9L134.6,68.5z M170.8,0.7l-0.4-0.3c-0.8-0.6-2-0.5-2.6,0.3
		l-31.4,40.7c-0.6,0.8-0.5,2,0.3,2.6l0.4,0.3c0.8,0.6,2,0.5,2.6-0.3l31.4-40.7C171.7,2.5,171.6,1.3,170.8,0.7z M195.5,31.1l-0.2-0.5
		c-0.5-0.9-1.6-1.3-2.5-0.8l-46,23c-0.9,0.5-1.3,1.6-0.8,2.5l0.2,0.5c0.5,0.9,1.6,1.3,2.5,0.8l46-23
		C195.6,33.2,195.9,32.1,195.5,31.1z"/>
</g>
<defs>
	<script>
		let badge = document.querySelector("#phone");

		function logMyId() {
			console.log(this.id)
		}

		badge.addEventListener("click", logMyId)

	</script>
</defs>
</svg>
