<?xml version="1.0" encoding="utf-8"?>
<!-- Generator: Adobe Illustrator 24.3.0, SVG Export Plug-In . SVG Version: 6.00 Build 0)  -->
<svg version="1.1" xmlns="http://www.w3.org/2000/svg" xmlns:xlink="http://www.w3.org/1999/xlink" x="0px" y="0px"
	 viewBox="0 0 244.9 287.9" style="enable-background:new 0 0 244.9 287.9;" xml:space="preserve">
<g id="black">
	<path id="black_6_" d="M161.3,132.6c0,17-13.8,30.8-30.8,30.8s-30.8-13.8-30.8-30.8s13.8-30.8,30.8-30.8S161.3,115.6,161.3,132.6z
		 M149.2,170.9c0,0-47.9,0.4-52.4,0c-4.5-0.4-11.4,7.5-11.4,7.5l-30.1,30.3l-13.1,15.1c-5.6,11.8,12.4,19.1,12.4,19.1h37.2v45h80
		l1.7-93.5c0,0,54.1-54.6,63.6-64.8s10.1-15.8,2.8-23.1s-16.9,4.1-16.9,4.1l-61.7,58.9C159.4,171.4,149.2,170.9,149.2,170.9z
		 M16.7,47.5c-2.4,1.8-2.9,5.3-1,7.7s5.3,2.9,7.7,1s2.9-5.3,1-7.7C22.5,46.1,19.1,45.6,16.7,47.5z M27.5,39.2
		c-2.4,1.8-2.9,5.3-1,7.7c1.8,2.4,5.3,2.9,7.7,1c2.4-1.8,2.9-5.3,1-7.7C33.3,37.8,29.9,37.3,27.5,39.2z M38.3,30.8
		c-2.4,1.8-2.9,5.3-1,7.7c1.8,2.4,5.3,2.9,7.7,1c2.4-1.8,2.9-5.3,1-7.7S40.7,29,38.3,30.8z M49.2,22.5c-2.4,1.8-2.9,5.3-1,7.7
		c1.8,2.4,5.3,2.9,7.7,1c2.4-1.8,2.9-5.3,1-7.7C55,21.2,51.6,20.7,49.2,22.5z M22.1,71.3c-2.4,1.8-2.9,5.3-1,7.7
		c1.8,2.4,5.3,2.9,7.7,1s2.9-5.3,1-7.7C27.9,69.9,24.5,69.4,22.1,71.3z M37.3,58.1c-2.4,1.8-2.9,5.3-1,7.7c1.8,2.4,5.3,2.9,7.7,1
		c2.4-1.8,2.9-5.3,1-7.7C43.1,56.7,39.7,56.2,37.3,58.1z M52.9,46.3c-2.4,1.8-2.9,5.3-1,7.7c1.8,2.4,5.3,2.9,7.7,1
		c2.4-1.8,2.9-5.3,1-7.7C58.7,45,55.3,44.5,52.9,46.3z M70.2,34.3c-2.4,1.8-2.9,5.3-1,7.7c1.8,2.4,5.3,2.9,7.7,1
		c2.4-1.8,2.9-5.3,1-7.7C76,33,72.6,32.5,70.2,34.3z M23.1,96c-0.7,3.4,1.5,6.6,4.9,7.3s6.6-1.5,7.3-4.9c0.7-3.4-1.5-6.6-4.9-7.3
		S23.8,92.7,23.1,96z M27.8,117.6c-0.8,3.9,1.7,7.6,5.6,8.4s7.6-1.7,8.4-5.6c0.8-3.9-1.7-7.6-5.6-8.4S28.6,113.8,27.8,117.6z
		 M32,141c-0.8,4.2,1.9,8.3,6.1,9.2s8.3-1.9,9.2-6.1c0.8-4.2-1.9-8.3-6.1-9.2S32.8,136.8,32,141z M38.9,163.1
		c-0.8,4.2,1.9,8.3,6.1,9.2c4.2,0.8,8.3-1.9,9.2-6.1c0.8-4.2-1.9-8.3-6.1-9.2S39.8,158.9,38.9,163.1z M63.5,117.7
		c-0.8,4.2,1.9,8.3,6.1,9.2c4.2,0.8,8.3-1.9,9.2-6.1c0.8-4.2-1.9-8.3-6.1-9.2C68.4,110.8,64.3,113.5,63.5,117.7z M74.1,136.6
		c-0.8,4.2,1.9,8.3,6.1,9.2c4.2,0.8,8.3-1.9,9.2-6.1c0.8-4.2-1.9-8.3-6.1-9.2C79,129.7,74.9,132.4,74.1,136.6z M95.9,95.4
		c-0.8,4.2,1.9,8.3,6.1,9.2c4.2,0.8,8.3-1.9,9.2-6.1c0.8-4.2-1.9-8.3-6.1-9.2C100.8,88.5,96.7,91.2,95.9,95.4z M128.7,74.9
		c-0.8,4.2,1.9,8.3,6.1,9.2s8.3-1.9,9.2-6.1s-1.9-8.3-6.1-9.2S129.5,70.7,128.7,74.9z M148.3,87c-0.8,4.2,1.9,8.3,6.1,9.2
		s8.3-1.9,9.2-6.1s-1.9-8.3-6.1-9.2S149.1,82.8,148.3,87z M55.6,99.6c-0.8,3.9,1.7,7.6,5.6,8.4s7.6-1.7,8.4-5.6
		c0.8-3.9-1.7-7.6-5.6-8.4C60.1,93.2,56.4,95.8,55.6,99.6z M80.8,79.8c-0.8,3.9,1.7,7.6,5.6,8.4c3.9,0.8,7.6-1.7,8.4-5.6
		c0.8-3.9-1.7-7.6-5.6-8.4C85.3,73.4,81.5,75.9,80.8,79.8z M107.4,62.5c-0.8,3.9,1.7,7.6,5.6,8.4c3.9,0.8,7.6-1.7,8.4-5.6
		c0.8-3.9-1.7-7.6-5.6-8.4C111.9,56.1,108.2,58.6,107.4,62.5z M43.9,80.4c-0.7,3.4,1.5,6.6,4.9,7.3s6.6-1.5,7.3-4.9
		c0.7-3.4-1.5-6.6-4.9-7.3C47.9,74.9,44.6,77.1,43.9,80.4z M65,65.7c-0.7,3.4,1.5,6.6,4.9,7.3c3.4,0.7,6.6-1.5,7.3-4.9
		s-1.5-6.6-4.9-7.3S65.7,62.3,65,65.7z M88.3,50.6c-0.7,3.4,1.5,6.6,4.9,7.3c3.4,0.7,6.6-1.5,7.3-4.9s-1.5-6.6-4.9-7.3
		C92.2,45,89,47.2,88.3,50.6z M6.9,20.2L0.4,34.7l5.4,8.4l42.3-31.5l-6.7-7.4l-16.7,4L18.2,0L0,11.8L6.9,20.2z"/>
</g>
<g id="music">
	<path id="music_7_" d="M209.2,89.3c0,0-4-7.4-12.9-3.7c-8.9,3.8-4.9,12.6,1.3,14.2s11.2-1,13.2-6.8l7.9-18.9c0,0,6.7,0.9,4.8,9.1
		c-1.9,8.2-4.9,11.7-4.9,11.7s6.3-6.9,7.5-10.6c1.2-3.7-0.4-12-2.7-16.6c-2.3-4.5,0.2-5.7,1.4-5.5c1.3,0.2,4.7,3.7,3.9,6.9
		s-3.6,10.5-3.6,10.5s2-0.7,3.5-3.6c1.6-2.9,4.4-4.9,2.4-12.2s-4-9.6-3.3-11.7s-1.2-4.5-2.6-1.1C223.9,54.6,209.2,89.3,209.2,89.3z
		 M192.4,63.4c0,0-5.8-5.1-12.9-0.8c-7.1,4.2-2.3,12.5,4.9,13c7.2,0.5,10.1-2.1,11-6l1.9-30.6c0,0,3.2,2.1,5.2,7.9
		c2,5.8,5.3,10,10.1,10.8s4.8-0.1,4.8-0.1s-4.9-3.9-7.7-12.5s-3.4-13.1-7.5-17.7c-4.1-4.6-5.8-4.7-6.7-3.8
		C194.7,24.3,192.4,63.4,192.4,63.4z"/>
</g>
</svg>
