<?xml version="1.0" encoding="utf-8"?>
<!-- Generator: Adobe Illustrator 24.3.0, SVG Export Plug-In . SVG Version: 6.00 Build 0)  -->
<svg id="workout" version="1.1" xmlns="http://www.w3.org/2000/svg" xmlns:xlink="http://www.w3.org/1999/xlink" x="0px" y="0px"
	 viewBox="0 0 244.9 287.9" style="enable-background:new 0 0 244.9 287.9;" xml:space="preserve">
<style type="text/css">
	.st0{fill:#F9F9F9;}

	#music { cursor: pointer; }
	#music:hover { fill: orange !important; }

	#black { cursor: pointer; }
	#black:hover { fill: grey !important; }
</style>
<g id="black_1_">
	<g id="black">
		<path id="black_8_" d="M73.8,50.2C85,56,89.4,69.7,83.5,80.9S64,96.4,52.9,90.5S37.5,71.1,43.2,60S62.7,44.5,73.8,50.2z M23.8,5.8
			c-2.2,12.9,7,12.4,18.2,13.4c11.7,1.1,25.4-2.1,42.4,14.8s12.4,28.6,12.4,28.6L82,96c0,0-12.4,27.6-9,44
			c3.4,16.4,28.5,17.3,28.5,17.3h23.8c0,0-48,83.7-54.9,94.5c-6.8,10.8-15.2,20.8-3.1,30.9c17.7,13,26.7-7.8,26.7-7.8l59.2-101
			c0,0,20.8,75.3,25.4,90.1c4.6,14.9,7.8,23.8,18.9,23.8c24.8,0.7,17.7-24.2,17.7-24.2s-32.8-112.8-33.2-114.3
			c-0.3-1.6-2.5-26.7-9.6-36.9c-6.9-10.1-55.9-50.7-55.9-50.7s7.1-12-17-39.7C76.7-3.9,34.6,0.2,34.6,0.2S27-0.2,23.8,5.8z"/>
	</g>
</g>
<g id="white_1_">
	<g id="white_4_">
		<path id="white_5_" class="st0" d="M91.5,130.2c-1.6,8.8,9.5,7.6,9.5,7.6h29.7l-34.2-26.5C96.5,111.3,93.1,121.4,91.5,130.2z"/>
	</g>
</g>
<g id="music_2_">
	<g id="music_1_">
		<path id="music" d="M88.1,44.6L71.6,36c-2.5-1.3-5.6-0.3-6.9,2.1l0,0c-1.3,2.5-0.3,5.6,2.1,6.9l16.5,8.6c2.5,1.3,5.6,0.3,6.9-2.1
			l0,0C91.6,49.1,90.6,46,88.1,44.6z M84.3,36.4l-3.7-1.9c-2.6-1.3-5.9-0.3-7.2,2.3l0,0c-1.3,2.6-0.3,5.9,2.3,7.2l3.7,1.9
			c2.6,1.3,5.9,0.3,7.2-2.3l0,0C88,41,87,37.8,84.3,36.4z M63.6,103.1L63.6,103.1c1.3-2.5,0.3-5.6-2.1-6.9L45,87.5
			c-2.5-1.3-5.6-0.3-6.9,2.1l0,0c-1.3,2.5-0.3,5.6,2.1,6.9l16.5,8.6C59.2,106.5,62.3,105.5,63.6,103.1z M54.9,104.5L54.9,104.5
			c1.3-2.6,0.3-5.9-2.3-7.2l-3.7-1.9c-2.6-1.3-5.9-0.3-7.2,2.3l0,0c-1.3,2.6-0.3,5.9,2.3,7.2l3.7,1.9
			C50.4,108.2,53.6,107.2,54.9,104.5z M40.6,95.1l2.1-4c0,0-21-10.6-10.1-33.3C40.8,42.2,46,40.7,53.4,38.2
			c7.8-1.4,16.3,2.8,16.3,2.8l2.3-4.4c0,0-14.7-6-23.8-1.7s-13.9,9.9-18.2,17.4s-5.4,15.2-5.3,19.6c0.1,4.5,3,13.3,8.2,17.7
			C38,94,40.6,95.1,40.6,95.1z"/>
	</g>
</g>
<defs>
	<script>
		let badge = document.querySelector("#workout");

		function logMyId() {
			console.log(this.id)
		}

		badge.addEventListener("click", logMyId)

	</script>
</defs>
</svg>
