<?xml version="1.0" encoding="utf-8"?>
<!-- Generator: Adobe Illustrator 24.3.0, SVG Export Plug-In . SVG Version: 6.00 Build 0)  -->
<svg version="1.1" xmlns="http://www.w3.org/2000/svg" xmlns:xlink="http://www.w3.org/1999/xlink" x="0px" y="0px"
	 viewBox="0 0 249.8 267.6" style="enable-background:new 0 0 249.8 267.6;" xml:space="preserve">
<g id="black">
	<path id="black_4_" d="M126,88.1c0,11.9-9.7,21.6-21.6,21.6S82.8,100,82.8,88.1s9.7-21.6,21.6-21.6S126,76.2,126,88.1z M136,123.4
		c-6-7-5,2-5,2l8,9.8h-21.4c0,0-12.4-6.8-31.4-26.7S53,113.9,53,113.9s-16.9,40.8-29.8,68.6s12.4,30.3,12.4,30.3h44.7
		c0,0-7.5,11.9-14.4,20.4c-7,8.5-21.4,25.4-7,31.8c14.4,6.5,17.9-4,17.9-4s24.9-38.8,34.8-53.2s-8-19.4-8-19.4H58.9
		c0,0,21.4-56.7,27.3-49.7c15.8,18.4,26.4,18.9,26.4,18.9h39.3c9.4-2.5,8-5,8-13.9s-10.9-8.6-10.9-8.6S142,130.3,136,123.4z
		 M249.8,172.9v-2.7c0-2.3-1.9-4.1-4.1-4.1H90.3c-2.3,0-4.1,1.9-4.1,4.1v2.7c0,2.3,1.9,4.1,4.1,4.1h155.4
		C248,177.1,249.8,175.2,249.8,172.9z M173.8,263.7v-93.6c0-2.2-1.8-3.9-3.9-3.9h-2.6c-2.2,0-3.9,1.8-3.9,3.9v93.6
		c0,2.2,1.8,3.9,3.9,3.9h2.6C172,267.6,173.8,265.8,173.8,263.7z M246.9,155.5v-2.7c0-2.3-1.9-4.1-4.1-4.1h-47.9
		c-2.3,0-4.1,1.9-4.1,4.1v2.7c0,2.3,1.9,4.1,4.1,4.1h47.9C245,159.7,246.9,157.8,246.9,155.5z M246.9,137.6v-3
		c0-2.6-2.1-4.7-4.7-4.7h-34.9c-2.6,0-4.7,2.1-4.7,4.7v3c0,2.6,2.1,4.7,4.7,4.7h34.9C244.7,142.3,246.9,140.2,246.9,137.6z
		 M9.2,112.2c-9.7-4.2-9.2,7-9.2,7v84.8c4.5,25.4,23.9,26.4,23.9,26.4l0.2,31.3c6.7,13.4,11.9,0,11.9,0v-31.3h24.6
		c2.1,0,4-1.3,4.6-3.4c2.1-7.2-8.9-7.8-8.9-7.8H27.1c-13.9-5.7-15.4-19.1-15.4-19.1v-78.1C11.7,121.9,11.6,115.8,9.2,112.2z"/>
</g>
<g id="music">
	<path id="music_6_" d="M161.6,52.8c0,0-6.7-8-17-3.9c-10.3,4.1-5.7,16.2,3.8,18.3c9.5,2.2,13.9-0.6,15.9-5.6l9.2-40.3
		c0,0,3.8,3.4,5.2,11.6c1.4,8.2,4.9,14.4,11,16.5c6.1,2.1,6.4,0.9,6.4,0.9s-5.7-6.3-7.5-18.3c-1.8-12.1-1.7-18.2-6.2-25.1
		s-6.7-7.5-8-6.5S161.6,52.8,161.6,52.8z M193.9,80.4c0,0-2.6-7.1-12.6-7.8c-10-0.6-16,11.7-3.1,18.5S195,87,195,87l17.1-35.7
		l31.7,6l-14.6,30.5c0,0-6.3-10.5-18.6-5.8c-7,5.2-4.2,14.3,4.7,18s14.5-3.4,14.5-3.4l18.9-39.5c0,0,2.4-2.7-2.4-3.8
		c-4.8-1.1-33.2-6.1-33.2-6.1s-2.2-1.1-3.5,1.6C208.3,51.5,193.9,80.4,193.9,80.4z"/>
</g>
</svg>
