<?xml version="1.0" encoding="utf-8"?>
<!-- Generator: Adobe Illustrator 24.3.0, SVG Export Plug-In . SVG Version: 6.00 Build 0)  -->
<svg version="1.1" xmlns="http://www.w3.org/2000/svg" xmlns:xlink="http://www.w3.org/1999/xlink" x="0px" y="0px"
	 viewBox="0 0 295.9 304" style="enable-background:new 0 0 295.9 304;" xml:space="preserve">
<style type="text/css">
	.st0{fill:#FDFEFE;stroke:#000000;stroke-width:1.2138;stroke-miterlimit:10;}
</style>
<g id="black">
	<path id="black_5_" d="M106,47.6c0,15.5-12.5,28-28,28s-28-12.5-28-28s12.5-28,28-28S106,32.2,106,47.6z M26.9,102.2
		c-8.9,8.4-12.8,22.6-20.5,40.3s-9.3,30.3,0,33.5c9.3,3.2,13.2-9.1,13.2-9.1s8.8-28.3,12.1-36.5c4.1-10.3,11.2-13.4,11.2-13.4
		s-2.1,11.2-2.7,21.4c-0.7,10.3-3.4,42.1,7.5,46.9c9.4,4.2,39.9,31.5,46.5,39.6c8.9,11,20.7,50.6,26,66.1s18.2,12.1,22.6,7.7
		S155,291.3,131,241s-31.9-48.3-34.4-57c-1.4-10,4.6-67.9,5.9-62.4c1.4,5.5,13.3,26.2,31.9,42.6c15.3,13.4,21.8,9.7,21.8,9.7
		s2.4,4.4,26.3,14.7c23.9,10.3,50.2,12.6,53.3,16.1c3.1,3.4-8.5,8.2-12.6,9.2c-4.1,1-53.3,1.7-53.3,1.7s-11.6-12.3-14.7-6.8
		s10.9,13.7,10.9,13.7s0.3-2.4-3.1,10.9s4.1,29,7.5,33.8c3.4,4.8-0.3,30.8,1,33.5s10.3,4.4,17.8,2.4c7.5-2,2.1-10.6-3.1-12
		c-5.1-1.4-1-2.7,2.1-9.2c3.1-6.5,3.1-24.9,3.1-24.9h54c0,0,1,16.7,1.4,33.1s6.2,12.6,12.6,12.6c6.5,0,10.6-0.7,9.9-5.8
		s-9.9-6.8-9.9-6.8s1-10.6,3.1-20.8c2.1-10.3,4.4-38.6,4.4-43.7c0-5.1,3.1-23.9,3.1-23.9c2.1,2.1,8.5,3.8,17.4,3.1
		c8.9-0.7,8.9-12.6,8.2-14.4s-24.6-10.9-27-12c-2.4-1-12.3-17.8-13.3-13c-1,4.8-10.9,29-10.9,29c-21.8,0.2-23.6-1.4-34.5-3.4
		c-10.9-2.1-52.3-18.8-49.6-22.9c2.7-4.1,2.1-8.5-8.9-16.4c-10.9-7.9-22.1-26.8-34.5-47.2c-12.3-20.2-43.4-19.1-43.4-19.1
		C46.7,85.4,35.8,93.8,26.9,102.2z M43.8,219.8L17.4,274c0,0-13.2,20.7,0,27.3s19.6-7.1,19.6-7.1s28.3-58.1,30.8-63.6
		s3.9-16.4,3.9-16.4l-24.8-19.7L43.8,219.8z"/>
</g>
<g id="music">
	<path id="music_9_" d="M39.2,69.1l2.4,0c3.1,0.1,5.6-2.4,5.7-5.5l0.4-27c0.1-3.1-2.4-5.6-5.5-5.7l-2.4,0c-3.1-0.1-5.6,2.4-5.7,5.5
		l-0.4,27C33.7,66.5,36.1,69.1,39.2,69.1z M32.2,59.8l2.5,0c3.2,0.1,5.9-2.5,5.9-5.7l0.1-8c0.1-3.2-2.5-5.9-5.7-5.9l-2.5,0
		c-3.2-0.1-5.9,2.5-5.9,5.7l-0.1,8C26.4,57,29,59.7,32.2,59.8z M121.8,64.9l0.4-27c0.1-3.1-2.4-5.6-5.5-5.7l-2.4,0
		c-3.1-0.1-5.6,2.4-5.7,5.5l-0.4,27c-0.1,3.1,2.4,5.6,5.5,5.7l2.4,0C119.2,70.5,121.7,68,121.8,64.9z M129.3,55.6l0.1-8
		c0.1-3.2-2.5-5.9-5.7-5.9l-2.5,0c-3.2-0.1-5.9,2.5-5.9,5.7l-0.1,8c-0.1,3.2,2.5,5.9,5.7,5.9l2.5,0
		C126.6,61.4,129.3,58.8,129.3,55.6z M38.5,35.3H44c0,0-0.3-28.4,30.1-29.4c21.4,0,25.9,4.8,32.7,11.4c5.9,7.6,6.1,19.1,6.1,19.1h6
		c0,0-1.7-19.2-11.4-26.5S89.1,0.4,78.7,0S59.4,2.8,54.6,5.5S41.9,16.1,40.1,24.2C38.3,31.8,38.5,35.3,38.5,35.3z"/>
</g>
<g id="white">
	<path id="white_3_" class="st0" d="M269.5,216.1L241,204.3c-1-0.4-1.5-1.7-1.1-2.7l0.9-2.2c0.4-1,1.7-1.5,2.7-1.1l28.5,11.9
		c1,0.4,1.5,1.7,1.1,2.7l-0.9,2.2C271.8,216.1,270.6,216.6,269.5,216.1z"/>
</g>
</svg>
