<?xml version="1.0" encoding="utf-8"?>
<!-- Generator: Adobe Illustrator 24.3.0, SVG Export Plug-In . SVG Version: 6.00 Build 0)  -->
<svg id="working" version="1.1" xmlns="http://www.w3.org/2000/svg" xmlns:xlink="http://www.w3.org/1999/xlink" x="0px" y="0px"
	 viewBox="0 0 286.7 292.6" style="enable-background:new 0 0 286.7 292.6;" xml:space="preserve">
<style type="text/css">
	#music { cursor: pointer; }
	#music:hover { fill: orange !important; }

	#black { cursor: pointer; }
	#black:hover { fill: grey !important; }
</style>
<g id="black_1_">
	<g id="black">
		<path id="black_2_" d="M260.6,49.9c0,16.5-13.4,29.8-29.8,29.8S201,66.3,201,49.9s13.4-29.8,29.8-29.8S260.6,33.4,260.6,49.9z
			 M0,148.5h12.9v142h103.5V150H146v-17.4H0V148.5z M262.5,187.3c-4,20.1-19.5,21.9-22.4,23c-2.9,1.1-42.3,0-42.3,0v19.3l30.1,0.5
			l-1.3,39.1c0,0-9.2-1.6-17.4,1.8c-15.1,5-12.4,21.6-12.4,21.6H210c-1.8-11.9,10.6-10.3,10.6-10.3s20.1,0,31.7-0.3
			c11.6-0.3,11.4,10.5,11.4,10.5l11.6-0.2c0,0,0.3,2.6-1.1-9.8c-5.5-17.3-28.8-13.5-28.8-13.5v-42c0,0-0.3,2.4,11.6-1.8
			c11.9-4.2,19.5-18.7,21.7-29.3c2.1-10.6,8-78.2,8-78.2h-19.3C267.2,117.8,266.4,167.2,262.5,187.3z M143.3,100.7
			c-9.9-0.5-14.4,1.8-16.5,12.1s9.5,17.4,33.8,18.2s40.4-4,40.4-4l-4.4,46.7c0,0-10.6-1.1-27.8,2.6c-17.2,3.7-24.3,19.3-24.3,19.3
			s-21.9,67.9-24,77.6c-2.1,9.7,8.3,18.3,16.4,17.2c9.1-1.2,13.9-10.2,13.9-10.2s3.4-7.7,10.8-38.6s15.1-34.9,19.3-36.5
			c4.2-1.6,18.7-1.8,45.2-1.6c26.4,0.3,27.2-19,27.2-19s7.4-59.2,7.4-65.5s3.4-15.6-12.9-27.2c-16.9-8.5-26.7-3.4-44.9,6.1
			c-14.6,7.6-34.7,5.6-42.1,4.4c-1.8-0.3-2.8-0.5-2.8-0.5S153.2,101.2,143.3,100.7z"/>
	</g>
</g>
<g id="music_1_">
	<g id="music">
		<path id="music_4_" d="M57,127.1h62.1v-10.3H65.5l-19-66.9l-10.3,2.8L57,127.1z M76.2,76.4l26.2-73c0.5-1.3-0.2-2.7-1.5-3.2l0,0
			c-1.3-0.5-2.7,0.2-3.2,1.5l-26.2,73C71,76,71.7,77.4,73,77.9l0,0C74.3,78.3,75.7,77.6,76.2,76.4z M101.3,95.7l57.6-51.9
			c1-0.9,1.1-2.5,0.2-3.5l0,0c-0.9-1-2.5-1.1-3.5-0.2L98,92c-1,0.9-1.1,2.5-0.2,3.5l0,0C98.8,96.5,100.3,96.6,101.3,95.7z"/>
	</g>
</g>
<defs>
	<script>
		let badge = document.querySelector("#working");

		function logMyId() {
			console.log(this.id)
		}

		badge.addEventListener("click", logMyId)

	</script>
</defs>
</svg>
